<svg xmlns="http://www.w3.org/2000/svg" xmlns:xlink="http://www.w3.org/1999/xlink" aria-hidden="true" role="img" class="iconify iconify--jam" width="32" height="32" preserveAspectRatio="xMidYMid meet" viewBox="0 0 24 24"><path d="M13 12h2a1 1 0 0 1 0 2h-3a1 1 0 0 1-1-1V8a1 1 0 1 1 2 0v4zm7.63-1.562a9 9 0 1 1-17.26 0a5 5 0 1 1 7.668-6.387a9.102 9.102 0 0 1 1.924 0a5 5 0 1 1 7.668 6.387zm-.938-2.113a3 3 0 0 0-4.48-3.735a9.03 9.03 0 0 1 4.48 3.735zM8.787 4.59a3 3 0 0 0-4.48 3.735a9.03 9.03 0 0 1 4.48-3.735zM12 20a7 7 0 1 0 0-14a7 7 0 0 0 0 14z" fill="currentColor"></path></svg>