<svg xmlns="http://www.w3.org/2000/svg" xmlns:xlink="http://www.w3.org/1999/xlink" aria-hidden="true" role="img" class="iconify iconify--jam" width="32" height="32" preserveAspectRatio="xMidYMid meet" viewBox="0 0 24 24"><path d="M13 14v-3a1 1 0 1 0-2 0v4a1 1 0 0 0 1 1h3a1 1 0 0 0 0-2h-2zm-1 7a6 6 0 1 1 0-12a6 6 0 0 1 0 12zm2.928-13.447A7.98 7.98 0 0 0 12 7a7.98 7.98 0 0 0-2.928.553A2.5 2.5 0 0 1 10.5 3h3a2.5 2.5 0 0 1 1.428 4.553zM10.5 5a.5.5 0 0 0 0 1h3a.5.5 0 0 0 0-1h-3zm5.554 3.101a1.5 1.5 0 1 1 2.077 1.76a8.039 8.039 0 0 0-2.077-1.76zM5.869 9.861a1.5 1.5 0 1 1 2.077-1.76a8.039 8.039 0 0 0-2.076 1.76z" fill="currentColor"></path></svg>