<svg xmlns="http://www.w3.org/2000/svg" xmlns:xlink="http://www.w3.org/1999/xlink" aria-hidden="true" role="img" class="iconify iconify--jam" width="32" height="32" preserveAspectRatio="xMidYMid meet" viewBox="0 0 24 24"><path d="M4.252 10A8.014 8.014 0 0 0 4 12c0 .69.088 1.36.252 2H7.1a19.83 19.83 0 0 1 0-4H4.252zm.818-2h2.346c.266-1.217.65-2.307 1.121-3.214A8.035 8.035 0 0 0 5.07 8zm14.678 2H16.9a19.83 19.83 0 0 1 0 4h2.848a8.047 8.047 0 0 0 0-4zm-.818-2a8.035 8.035 0 0 0-3.467-3.214c.472.907.855 1.997 1.121 3.214h2.346zm-9.818 2A17.763 17.763 0 0 0 9 12c0 .685.038 1.355.112 2h5.776a17.763 17.763 0 0 0 0-4H9.112zm.358-2h5.06a10.758 10.758 0 0 0-.783-2.177C13.119 4.568 12.447 4 12 4c-.448 0-1.119.568-1.747 1.823c-.315.632-.58 1.367-.783 2.177zm-4.4 8a8.035 8.035 0 0 0 3.467 3.214c-.472-.907-.855-1.997-1.121-3.214H5.07zm13.86 0h-2.346c-.266 1.217-.65 2.307-1.121 3.214A8.035 8.035 0 0 0 18.93 16zm-9.46 0c.203.81.468 1.545.783 2.177C10.881 19.432 11.553 20 12 20c.448 0 1.119-.568 1.747-1.823c.315-.632.58-1.367.783-2.177H9.47zM12 22C6.477 22 2 17.523 2 12S6.477 2 12 2s10 4.477 10 10s-4.477 10-10 10z" fill="currentColor"></path></svg>